<svg width="40" height="43" viewBox="0 0 40 43" fill="none" xmlns="http://www.w3.org/2000/svg">
<g clip-path="url(#clip0_325_921)">
<path fill-rule="evenodd" clip-rule="evenodd" d="M39.5817 1.36504C39.9809 1.78082 40.1074 2.40247 39.9049 2.95128L25.6191 41.637C25.4124 42.1964 24.9035 42.5723 24.3282 42.5901C23.7528 42.608 23.2234 42.2643 22.9852 41.7185L17.011 28.0294L25.8009 18.8744C26.6378 18.0028 26.6378 16.5897 25.8009 15.7181C24.9641 14.8465 23.6073 14.8465 22.7705 15.7181L13.9805 24.8731L0.837429 18.6508C0.313403 18.4027 -0.0164737 17.8513 0.000634992 17.252C0.0177438 16.6528 0.378497 16.1227 0.915749 15.9075L38.0586 1.02842C38.5854 0.817336 39.1823 0.949259 39.5817 1.36504Z" fill="white"/>
</g>
<defs>
<clipPath id="clip0_325_921">
<rect width="40" height="41.6615" fill="white" transform="translate(0 0.929199)"/>
</clipPath>
</defs>
</svg>
